<svg id="レイヤー_1" data-name="レイヤー 1" xmlns="http://www.w3.org/2000/svg" xmlns:xlink="http://www.w3.org/1999/xlink" viewBox="0 0 65.87 194.55"><defs><style>.cls-1,.cls-4{fill:#fff;}.cls-1{stroke:#231815;stroke-miterlimit:10;}.cls-2{fill:url(#名称未設定グラデーション_101);}.cls-3{fill:url(#名称未設定グラデーション_73);}.cls-5{fill:url(#名称未設定グラデーション_161);}</style><linearGradient id="名称未設定グラデーション_101" x1="15.42" y1="96.33" x2="59.41" y2="96.33" gradientUnits="userSpaceOnUse"><stop offset="0.02" stop-color="#d4d4d4"/><stop offset="0.16" stop-color="#fff"/><stop offset="0.34" stop-color="#d4d4d4"/><stop offset="0.59" stop-color="#d2d2d2"/><stop offset="0.69" stop-color="#cbcbcb"/><stop offset="0.75" stop-color="silver"/><stop offset="0.8" stop-color="#afafaf"/><stop offset="0.85" stop-color="#999"/><stop offset="0.89" stop-color="#7d7d7d"/><stop offset="0.93" stop-color="#5d5d5d"/><stop offset="0.96" stop-color="#373737"/><stop offset="0.99" stop-color="#0e0e0e"/><stop offset="1"/></linearGradient><linearGradient id="名称未設定グラデーション_73" x1="3.38" y1="80.23" x2="60.24" y2="74.4" gradientUnits="userSpaceOnUse"><stop offset="0.09" stop-color="#2ea7e0"/><stop offset="0.11" stop-color="#33a9e1"/><stop offset="0.14" stop-color="#41afe3"/><stop offset="0.16" stop-color="#58b8e6"/><stop offset="0.18" stop-color="#78c6eb"/><stop offset="0.21" stop-color="#a2d7f1"/><stop offset="0.23" stop-color="#d4ecf8"/><stop offset="0.25" stop-color="#f4f9fd"/><stop offset="0.29" stop-color="#d4ecf8"/><stop offset="0.38" stop-color="#a2d7f1"/><stop offset="0.46" stop-color="#78c6eb"/><stop offset="0.54" stop-color="#58b8e6"/><stop offset="0.61" stop-color="#41afe3"/><stop offset="0.68" stop-color="#33a9e1"/><stop offset="0.74" stop-color="#2ea7e0"/><stop offset="0.82" stop-color="#2ca4de"/><stop offset="0.88" stop-color="#249ad7"/><stop offset="0.94" stop-color="#1889cb"/><stop offset="0.99" stop-color="#0672bb"/><stop offset="1" stop-color="#036eb8"/></linearGradient><linearGradient id="名称未設定グラデーション_161" x1="16.27" y1="177.35" x2="50.53" y2="177.35" gradientUnits="userSpaceOnUse"><stop offset="0.02" stop-color="#ebebeb"/><stop offset="0.17" stop-color="#f9f9f9"/><stop offset="0.3" stop-color="#fff"/><stop offset="0.69" stop-color="#ebebeb"/><stop offset="0.79" stop-color="#e9e9e9"/><stop offset="0.84" stop-color="#e2e2e2"/><stop offset="0.88" stop-color="#d5d5d5"/><stop offset="0.91" stop-color="#c3c3c3"/><stop offset="0.94" stop-color="#acacac"/><stop offset="0.96" stop-color="#8f8f8f"/><stop offset="0.98" stop-color="#6d6d6d"/><stop offset="1" stop-color="#474747"/></linearGradient></defs><path class="cls-1" d="M50.94,164.29s-5.55,3.25-8.85,3.07H26.94s-9.7-.48-10.26-2.72"/><path class="cls-1" d="M4.66,10.68s.16,4.48,1,5.37l3,28.81,1.48,12.88.83,19.15S12,88.43,12,93.88c0,0,1,18.26,1.15,19.6s2.8,42.76,2.55,43.92a33.2,33.2,0,0,0,0,5,2.84,2.84,0,0,0,.56,2.24c.82.9.49,21.65.49,21.65s2.72,2.95,4.29,3.67,17.7.36,17.7.36l8.15-1.08a2.87,2.87,0,0,0,2.31-2.05c.74-2,1.32-22.91,1.32-22.91l.49-.62,2.23-42.5L55,89.59s1.24-29.25,1.65-30.78c0,0,2.47-31.49,2.72-32.92l1.32-10.82V9.79L59.17,8.45,5.65,8.8Z"/><path class="cls-2" d="M15.42,150.18l.27,13.09s.17,1.38.58,1.38c0,0,1.66,1.73,5.72,2.19l5,.53H42.09a15.93,15.93,0,0,0,8.44-3.07l.49-.62L56.44,60.48l3-35.19Z"/><path class="cls-3" d="M59.89,21.35S50.16,81.29,29.41,127.64c0,0-6.41,14.67-14,22.54l-2.28-36.7L10.85,75.39l-.76-17.65L5.65,16.05s-1.36-4.66-1-5.37l1-1.88,53.52-.35,1.49,1.34v5.28Z"/><path class="cls-4" d="M39.63,17.86l-6.89,4.47,6.77,3.83-9.88,3.65-4.8,1.38,0-2.32,9.44-2.32-5.95-4.12.16-.32L34.09,18l-9.52-1.88,0-2.32,4.73,1.5"/><path class="cls-4" d="M24.84,32.07l14.78.67,0,1.13L24.9,35.43Z"/><path class="cls-4" d="M38.7,50.33l-1.38-.22c.73-1.24,1-4.32.94-5.51a5.94,5.94,0,0,0-1.71-4.4,5.81,5.81,0,0,0-4.35-1.53,5.52,5.52,0,0,0-4.09,1.67,6,6,0,0,0-1.49,4.38,7.41,7.41,0,0,0,1.12,3.9l3.37-.14-.05-3.17,1.39.07s0,2,0,2l.15,3.06-6,.12a9.37,9.37,0,0,1-1.41-2.94,15.1,15.1,0,0,1-.47-3.39,8.06,8.06,0,0,1,2-5.88,7.33,7.33,0,0,1,5.47-2.26,7.13,7.13,0,0,1,5.6,2.24,6.65,6.65,0,0,1,2.22,5.3C40.1,45.51,39.53,49.14,38.7,50.33Z"/><path class="cls-4" d="M25.38,63.71l5.75-3.58L31,56l-5.8-3.14,0-1.84L40.25,57.7v.65l-14.85,7Zm11-5.72-3.64-1.47L33,59.39Z"/><path class="cls-4" d="M38.72,77.28l-1.41-.85a8,8,0,0,0,1.43-4A4.73,4.73,0,0,0,37,68.67a6.39,6.39,0,0,0-4.33-1.33c-1.68,0-3.34.1-4.37,1.1a4.52,4.52,0,0,0-1.2,3.68,7.51,7.51,0,0,0,2.17,4.68l-1.74.89a9.15,9.15,0,0,1-2-5.67c0-2.33.38-3.75,1.74-5.12s3.35-1.61,5.63-1.66,4,.21,5.51,1.7a6.72,6.72,0,0,1,1.89,5.38A14.7,14.7,0,0,1,38.72,77.28Z"/><path class="cls-4" d="M33.15,78.23a7.69,7.69,0,0,1,5.39,1.84,6.72,6.72,0,0,1,2.25,5.21A7.76,7.76,0,0,1,38.9,91a7.51,7.51,0,0,1-5.5,2.1,7.82,7.82,0,0,1-5.73-1.87,7.54,7.54,0,0,1-2.16-5.67,6.74,6.74,0,0,1,2.08-5.34A8.22,8.22,0,0,1,33.15,78.23Zm0,2.56A7.13,7.13,0,0,0,29,82.1c-1.12.83-2.53,2.24-2.51,3.72,0,1.67,1.43,2.67,2.49,3.52a6.64,6.64,0,0,0,4.41,1.23c3.8-.08,6.55-2,6.49-5.39,0-1.52-1.43-2.52-2.47-3.29A6.72,6.72,0,0,0,33.19,80.79Z"/><image width="643" height="200" transform="translate(20.88 152.65) scale(0.04 0.04)" xlink:href="../1x/%E3%82%A2%E3%83%BC%E3%83%88%E3%83%9C%E3%83%BC%E3%83%89%201.png"/><path class="cls-5" d="M16.27,164.65s.86,2.66.49,21.65A21,21,0,0,0,21.05,190l18.74.45,7.11-1.17a3.76,3.76,0,0,0,2.31-2.05l.87-10.77.45-12.14a18,18,0,0,1-7.12,3.08H26.94S18.56,167,16.27,164.65Z"/></svg>